<svg width="93" height="24" viewBox="0 0 93 24" fill="none" xmlns="http://www.w3.org/2000/svg">
<path fill-rule="evenodd" clip-rule="evenodd" d="M25 11.3467C24.9976 9.85667 24.5 8.40801 23.5825 7.21982C22.6649 6.03164 21.3774 5.16859 19.9148 4.76125C18.4521 4.35391 16.8938 4.42444 15.4757 4.96217C14.0575 5.4999 12.8567 6.47557 12.0549 7.74157L12.7817 8.45371C12.9846 8.10085 13.2241 7.76948 13.4966 7.46488L13.4882 7.45671L13.7432 7.20688C14.581 6.38117 15.6501 5.81777 16.8151 5.58805C17.98 5.35834 19.1883 5.47267 20.2869 5.91654C21.3854 6.36042 22.3248 7.11386 22.9859 8.08139C23.647 9.04891 24.0001 10.187 24.0004 11.3513V11.3513C24.0004 11.4681 24.0004 11.5848 23.9897 11.7016V11.7506V11.7868V11.8592C23.9897 11.8825 23.9897 11.9012 23.9837 11.9222L23.973 12.0168V12.0168C23.973 12.0354 23.973 12.0553 23.9658 12.0763C23.961 12.0905 23.9594 12.1105 23.9578 12.131C23.9571 12.1408 23.9563 12.1509 23.9551 12.1604L23.948 12.2071C23.948 12.2257 23.9439 12.2461 23.9399 12.2666L23.9399 12.2666L23.9398 12.2667C23.9381 12.2756 23.9363 12.2846 23.9348 12.2934C23.9325 12.3077 23.9311 12.3158 23.9299 12.3223L23.9299 12.3223C23.9286 12.3291 23.9277 12.3341 23.9265 12.3425C23.9258 12.3474 23.9255 12.352 23.9252 12.3564V12.3564C23.9246 12.3668 23.924 12.3762 23.9182 12.3868C23.9126 12.397 23.9113 12.4114 23.9099 12.4261V12.4262C23.9093 12.4334 23.9086 12.4406 23.9074 12.4476C23.9057 12.4581 23.9036 12.4677 23.9015 12.4773C23.8994 12.487 23.8973 12.4966 23.8955 12.5071L23.8812 12.576C23.8467 12.7359 23.8038 12.8982 23.7621 13.0535L23.7552 13.0757C23.7507 13.0904 23.7462 13.1052 23.7406 13.12C23.7354 13.134 23.7325 13.1443 23.7296 13.1547L23.7295 13.1548C23.7278 13.1608 23.7261 13.1669 23.724 13.1737C23.6894 13.2764 23.6513 13.3803 23.612 13.4807L23.5941 13.5228L23.5595 13.5788C23.5512 13.5975 23.5417 13.6197 23.5333 13.6407L23.5095 13.6932V13.7014L23.4773 13.7738C23.469 13.7925 23.4607 13.81 23.4511 13.8275C23.2986 14.1497 23.1163 14.4577 22.9066 14.7474L22.8733 14.793L22.8006 14.8887L22.7934 14.8981L22.7934 14.8981C22.7846 14.9098 22.7751 14.9223 22.7648 14.9342L22.6862 15.0335L22.6386 15.0895L22.5945 15.142L22.5456 15.1981L22.5268 15.2191C22.5144 15.2331 22.5019 15.2471 22.4884 15.2611L23.1938 15.9522C24.3611 14.6916 25.0054 13.0489 25 11.3467ZM23.5214 16.5208C23.7934 16.2159 24.033 15.8846 24.2363 15.532L24.9416 16.2581C24.4294 17.0673 23.7507 17.7631 22.9489 18.3011C22.147 18.8391 21.2396 19.2075 20.2845 19.3828C19.3293 19.5581 18.3473 19.5366 17.4011 19.3195C16.4549 19.1024 15.5652 18.6945 14.7888 18.1219C14.0124 17.5492 13.3662 16.8244 12.8915 15.9935C12.4168 15.1626 12.124 14.2439 12.0316 13.296C11.9393 12.3481 12.0496 11.3918 12.3553 10.4879C12.6611 9.58404 13.1556 8.75251 13.8075 8.04631L14.5128 8.73744L14.4556 8.80048L14.4556 8.80053L14.4556 8.80053L14.4556 8.80053C14.4389 8.81803 14.4223 8.83552 14.4068 8.85535C14.3976 8.86713 14.388 8.8781 14.3784 8.88897L14.3784 8.88898L14.3784 8.88898L14.3784 8.88901L14.3784 8.88903C14.3719 8.89645 14.3654 8.90382 14.3591 8.91139L14.3448 8.92886L14.3448 8.92887C14.334 8.94215 14.323 8.95565 14.3115 8.96859L14.2328 9.06665C14.2197 9.08183 14.2078 9.09818 14.1971 9.11335L14.1256 9.20792L14.0911 9.25345C13.8816 9.54339 13.6994 9.85129 13.5466 10.1734L13.5216 10.2271C13.5096 10.2516 13.4989 10.2761 13.4882 10.3006L13.4882 10.3006V10.3088C13.4857 10.3141 13.4826 10.3195 13.4795 10.3248C13.4725 10.3369 13.4656 10.3488 13.4656 10.3602L13.4382 10.4232C13.4322 10.4396 13.425 10.4571 13.4191 10.4711C13.4174 10.4752 13.4152 10.4794 13.413 10.4836C13.4078 10.4939 13.4024 10.5044 13.4024 10.5143C13.3619 10.6147 13.3238 10.7186 13.2904 10.8202C13.2861 10.8315 13.2831 10.8411 13.2798 10.8515L13.2798 10.8516L13.2798 10.8516C13.2776 10.8584 13.2754 10.8656 13.2725 10.8739C13.2704 10.88 13.2679 10.8862 13.2654 10.8924L13.2654 10.8924C13.2594 10.9071 13.2535 10.9217 13.2535 10.9357C13.2106 11.0922 13.1677 11.2533 13.1343 11.4132C13.1284 11.4366 13.1224 11.4634 13.1188 11.4833C13.1172 11.4925 13.1153 11.5012 13.1133 11.51C13.1111 11.5202 13.1088 11.5304 13.1069 11.5416C13.1057 11.5486 13.1051 11.5562 13.1044 11.5638C13.1031 11.579 13.1018 11.5942 13.0962 11.6035C13.092 11.6105 13.092 11.6172 13.092 11.6242C13.092 11.6313 13.092 11.6385 13.0879 11.6467C13.0829 11.6565 13.0826 11.6621 13.0821 11.6714C13.0818 11.6775 13.0814 11.6853 13.0795 11.6969C13.078 11.706 13.0762 11.7151 13.0744 11.7242L13.0744 11.7242C13.0704 11.7441 13.0664 11.7637 13.0664 11.7821L13.0593 11.83C13.0581 11.8395 13.0564 11.8492 13.0548 11.8588C13.0517 11.8775 13.0485 11.8959 13.0485 11.9129C13.0438 11.9339 13.0414 11.9538 13.0414 11.9724L13.0307 12.067V12.13L13.0235 12.2024C13.0241 12.2129 13.0241 12.2234 13.0235 12.2339V12.283C13.0128 12.3997 13.0128 12.5165 13.0128 12.6332V12.6332C13.0116 13.7986 13.3639 14.9381 14.025 15.907C14.6861 16.8758 15.6261 17.6302 16.7257 18.0745C17.8253 18.5188 19.0348 18.6328 20.2007 18.4021C21.3665 18.1714 22.4361 17.6064 23.2736 16.7788L23.5285 16.5278L23.5214 16.5208ZM16.9926 17.4147C16.3522 17.1541 15.771 16.7717 15.2825 16.2896L15.2658 16.3597C14.775 15.8786 14.3858 15.3073 14.1206 14.6786C13.8555 14.0499 13.7195 13.3761 13.7205 12.6958C13.7215 12.0155 13.8594 11.3421 14.1264 10.7141C14.3935 10.0862 14.7843 9.51601 15.2765 9.03628C15.6585 8.6651 16.0956 8.35259 16.5728 8.10933L17.3211 8.84248C16.8226 9.05203 16.3688 9.35142 15.9831 9.72507C15.1966 10.4887 14.7427 11.5212 14.7167 12.6058C14.6906 13.6904 15.0944 14.7427 15.8433 15.5417C16.5922 16.3408 17.6279 16.8245 18.733 16.8912C19.8381 16.958 20.9266 16.6026 21.7699 15.8997L22.4753 16.5908L22.4467 16.6154L22.3526 16.6936L22.3025 16.7344L22.2525 16.773L22.2406 16.7811L22.2108 16.8045L22.1619 16.8418L22.1167 16.8745L22.0904 16.8932L22.0535 16.9189H22.0464L21.9975 16.9527C21.9379 16.9936 21.8831 17.0286 21.8295 17.0625L21.7104 17.1349L21.6377 17.1769L21.6043 17.1956C21.4983 17.2539 21.3887 17.31 21.2779 17.3614L21.2243 17.387H21.2135L21.1778 17.4022L21.1111 17.4314L21.0372 17.4629L20.9621 17.4921L20.9169 17.5096C20.8978 17.5178 20.8775 17.5248 20.8561 17.5318L20.8144 17.5481H20.8049L20.7703 17.561L20.6381 17.6042L20.5952 17.617L20.5356 17.6357L20.4963 17.6474H20.4891L20.4582 17.6567L20.4176 17.6672L20.3664 17.6812L20.3021 17.6976H20.2782L20.1853 17.7186L20.0447 17.7478L19.9911 17.7571H19.9852L19.9435 17.7641H19.9375L19.8851 17.7723C19.8231 17.7828 19.7588 17.7921 19.6932 17.8003H19.6408H19.6146H19.5741H19.5133L19.4419 17.8073H19.424H19.3882H19.3108H19.2143H19.1464H19.0129C18.3196 17.8086 17.6329 17.6752 16.9926 17.4147ZM20.4272 15.9464L19.679 15.2133C20.1876 14.9897 20.6473 14.6718 21.0325 14.277C21.8189 13.5133 22.2728 12.4808 22.2989 11.3962C22.3249 10.3117 21.9211 9.25937 21.1723 8.4603C20.4234 7.66124 19.3877 7.17755 18.2826 7.11081C17.1775 7.04406 16.089 7.39944 15.2456 8.10233L14.5403 7.41003L14.5689 7.38552L14.663 7.3073L14.7178 7.2641L14.7678 7.22441L14.7798 7.21623L14.8096 7.19288L14.8584 7.15669L14.9037 7.12401L14.9287 7.10533L14.9668 7.07848L14.9764 7.07147L15.0216 7.04112C15.0812 7.00142 15.136 6.96523 15.1896 6.93255L15.2385 6.90219L15.3147 6.85666L15.3838 6.81697L15.416 6.79829C15.522 6.73991 15.6317 6.68388 15.7425 6.63251L15.7973 6.60683H15.8068L15.8425 6.59165L15.9093 6.56247L15.9831 6.53211L16.0582 6.50176L16.1035 6.48424L16.1654 6.46206L16.2059 6.44688H16.2167L16.25 6.43521L16.3823 6.39085L16.4252 6.37801L16.4847 6.36049L16.524 6.34882H16.5312L16.5622 6.33948L16.6027 6.32898L16.6539 6.31497L16.7183 6.29862H16.7421L16.835 6.27644L16.9768 6.24725L17.0292 6.23791H17.0376L17.0769 6.23091H17.0828L17.1353 6.22157C17.1984 6.21106 17.2616 6.20289 17.3271 6.19472L17.3783 6.18771H17.3855H17.4057H17.4462L17.507 6.18188H17.5785H17.5963H17.6321H17.7095H17.806H17.8716H18.0038C19.1862 6.18261 20.334 6.5723 21.2634 7.28849C22.1927 8.00467 22.8498 9.00587 23.1291 10.1316C23.4085 11.2573 23.2941 12.4423 22.8042 13.4967C22.3142 14.5511 21.4772 15.4138 20.4272 15.9464Z" fill="#4F46E5"/>
<path d="M29.8693 16.5H28.7614L33.4148 7.77273H34.5057L36.2614 16.5H35.1534L33.7727 9.15341H33.7045L29.8693 16.5ZM30.8409 13.0909H35.3068L35.1534 14.0284H30.6875L30.8409 13.0909ZM38.6578 12.5625L38.0101 16.5H37.0044L38.4532 7.77273H39.4589L38.9305 10.9773H39.0157C39.2203 10.6364 39.493 10.3665 39.8339 10.1676C40.1777 9.96875 40.6095 9.86932 41.1294 9.86932C41.5726 9.86932 41.9461 9.95881 42.2501 10.1378C42.5569 10.3139 42.7728 10.5852 42.8978 10.9517C43.0257 11.3153 43.0441 11.7784 42.9532 12.3409L42.2544 16.5H41.2487L41.9305 12.4091C42.0157 11.8892 41.9461 11.4872 41.7217 11.2031C41.5001 10.9162 41.1549 10.7727 40.6862 10.7727C40.3566 10.7727 40.0498 10.8423 39.7657 10.9815C39.4845 11.1207 39.2459 11.3239 39.0498 11.5909C38.8566 11.858 38.726 12.1818 38.6578 12.5625ZM46.3159 16.6364C45.7137 16.6364 45.2094 16.4929 44.8031 16.206C44.3969 15.919 44.11 15.517 43.9423 15C43.7776 14.483 43.7506 13.8807 43.8614 13.1932C43.9693 12.5227 44.1838 11.9389 44.5048 11.4418C44.8287 10.9418 45.2307 10.5554 45.7108 10.2827C46.1938 10.0071 46.725 9.86932 47.3046 9.86932C47.9068 9.86932 48.4097 10.0142 48.8131 10.304C49.2193 10.5909 49.5063 10.9943 49.6739 11.5142C49.8415 12.0312 49.8699 12.6364 49.7591 13.3295C49.6512 13.9943 49.4338 14.5753 49.1071 15.0724C48.7833 15.5668 48.3813 15.9517 47.9012 16.2273C47.4239 16.5 46.8955 16.6364 46.3159 16.6364ZM46.333 15.733C46.7932 15.733 47.1923 15.6151 47.5304 15.3793C47.8713 15.1435 48.1469 14.8324 48.3571 14.446C48.5702 14.0597 48.7137 13.642 48.7875 13.1932C48.8557 12.767 48.8529 12.3707 48.779 12.0043C48.7051 11.6349 48.5475 11.3381 48.306 11.1136C48.0645 10.8864 47.725 10.7727 47.2875 10.7727C46.8273 10.7727 46.4253 10.892 46.0815 11.1307C45.7406 11.3693 45.4651 11.6832 45.2548 12.0724C45.0446 12.4616 44.904 12.8807 44.833 13.3295C44.7648 13.7557 44.7662 14.152 44.8372 14.5185C44.9111 14.8821 45.0688 15.1761 45.3102 15.4006C45.5546 15.6222 45.8955 15.733 46.333 15.733ZM50.2944 16.5L51.3853 9.95455H52.3569L52.1864 10.9432H52.2546C52.4251 10.6193 52.685 10.3565 53.0344 10.1548C53.3839 9.95312 53.7546 9.85227 54.1466 9.85227C54.2234 9.85227 54.3157 9.85369 54.4236 9.85653C54.5316 9.85653 54.6154 9.8608 54.6751 9.86932L54.5046 10.892C54.4705 10.8835 54.3938 10.8707 54.2745 10.8537C54.1552 10.8338 54.0273 10.8239 53.891 10.8239C53.5728 10.8239 53.2787 10.8906 53.0089 11.0241C52.739 11.1548 52.5131 11.3366 52.3313 11.5696C52.1495 11.7997 52.033 12.0625 51.9819 12.358L51.3001 16.5H50.2944ZM54.3027 16.5L55.3936 9.95455H56.3652L56.1947 10.9432H56.2629C56.4333 10.6193 56.6933 10.3565 57.0427 10.1548C57.3921 9.95312 57.7629 9.85227 58.1549 9.85227C58.2316 9.85227 58.324 9.85369 58.4319 9.85653C58.5399 9.85653 58.6237 9.8608 58.6833 9.86932L58.5129 10.892C58.4788 10.8835 58.4021 10.8707 58.2828 10.8537C58.1635 10.8338 58.0356 10.8239 57.8992 10.8239C57.5811 10.8239 57.287 10.8906 57.0171 11.0241C56.7473 11.1548 56.5214 11.3366 56.3396 11.5696C56.1578 11.7997 56.0413 12.0625 55.9902 12.358L55.3083 16.5H54.3027ZM60.22 16.6534C59.8053 16.6534 59.4416 16.5753 59.1291 16.419C58.8166 16.2599 58.5851 16.0312 58.4345 15.733C58.2839 15.4318 58.2428 15.0682 58.3109 14.642C58.3763 14.267 58.5027 13.9631 58.6902 13.7301C58.8777 13.4943 59.105 13.3097 59.372 13.1761C59.6419 13.0398 59.9317 12.9389 60.2413 12.8736C60.5538 12.8054 60.8649 12.7528 61.1746 12.7159C61.578 12.6648 61.9061 12.625 62.1589 12.5966C62.4118 12.5682 62.6021 12.5213 62.73 12.456C62.8578 12.3906 62.9359 12.2784 62.9643 12.1193V12.0852C63.0325 11.6676 62.9771 11.3423 62.7982 11.1094C62.6192 10.8736 62.2996 10.7557 61.8393 10.7557C61.3621 10.7557 60.9629 10.8608 60.6419 11.071C60.3209 11.2812 60.0837 11.5057 59.9303 11.7443L59.0439 11.4034C59.2768 11.0057 59.5553 10.696 59.8791 10.4744C60.203 10.25 60.5425 10.0937 60.8976 10.0057C61.2527 9.91477 61.595 9.86932 61.9246 9.86932C62.1348 9.86932 62.372 9.89489 62.6362 9.94602C62.9004 9.99432 63.1476 10.0952 63.3777 10.2486C63.6107 10.402 63.7854 10.6335 63.9018 10.9432C64.0212 11.2528 64.0382 11.6676 63.953 12.1875L63.2371 16.5H62.2314L62.3848 15.6136H62.3337C62.2428 15.7557 62.1036 15.9077 61.9161 16.0696C61.7314 16.2315 61.497 16.3693 61.2129 16.483C60.9317 16.5966 60.6007 16.6534 60.22 16.6534ZM60.5098 15.75C60.9075 15.75 61.2555 15.6719 61.5538 15.5156C61.855 15.3594 62.0964 15.1577 62.2783 14.9105C62.4629 14.6634 62.578 14.4034 62.6234 14.1307L62.7768 13.2102C62.7257 13.2614 62.6249 13.3082 62.4743 13.3509C62.3237 13.3906 62.1533 13.4261 61.9629 13.4574C61.7754 13.4858 61.5922 13.5114 61.4132 13.5341C61.2371 13.554 61.095 13.571 60.9871 13.5852C60.72 13.6193 60.4658 13.6747 60.2243 13.7514C59.9857 13.8253 59.7839 13.9375 59.6192 14.0881C59.4572 14.2358 59.3564 14.4375 59.3166 14.6932C59.257 15.0426 59.3408 15.3068 59.568 15.4858C59.7953 15.6619 60.1092 15.75 60.5098 15.75ZM68.3229 7.77273H69.5331L71.2888 11.8466H71.3911L74.4763 7.77273H75.6865L71.6808 12.9034L71.0842 16.5H70.0274L70.624 12.9034L68.3229 7.77273ZM76.0417 16.6534C75.627 16.6534 75.2633 16.5753 74.9508 16.419C74.6383 16.2599 74.4068 16.0312 74.2562 15.733C74.1057 15.4318 74.0645 15.0682 74.1327 14.642C74.198 14.267 74.3244 13.9631 74.5119 13.7301C74.6994 13.4943 74.9267 13.3097 75.1937 13.1761C75.4636 13.0398 75.7534 12.9389 76.0631 12.8736C76.3756 12.8054 76.6866 12.7528 76.9963 12.7159C77.3997 12.6648 77.7278 12.625 77.9807 12.5966C78.2335 12.5682 78.4238 12.5213 78.5517 12.456C78.6795 12.3906 78.7577 12.2784 78.7861 12.1193V12.0852C78.8542 11.6676 78.7988 11.3423 78.6199 11.1094C78.4409 10.8736 78.1213 10.7557 77.6611 10.7557C77.1838 10.7557 76.7846 10.8608 76.4636 11.071C76.1426 11.2812 75.9054 11.5057 75.752 11.7443L74.8656 11.4034C75.0986 11.0057 75.377 10.696 75.7008 10.4744C76.0247 10.25 76.3642 10.0937 76.7193 10.0057C77.0744 9.91477 77.4167 9.86932 77.7463 9.86932C77.9565 9.86932 78.1937 9.89489 78.4579 9.94602C78.7221 9.99432 78.9693 10.0952 79.1994 10.2486C79.4324 10.402 79.6071 10.6335 79.7236 10.9432C79.8429 11.2528 79.8599 11.6676 79.7747 12.1875L79.0588 16.5H78.0531L78.2065 15.6136H78.1554C78.0645 15.7557 77.9253 15.9077 77.7378 16.0696C77.5531 16.2315 77.3187 16.3693 77.0346 16.483C76.7534 16.5966 76.4224 16.6534 76.0417 16.6534ZM76.3315 15.75C76.7292 15.75 77.0773 15.6719 77.3756 15.5156C77.6767 15.3594 77.9182 15.1577 78.1 14.9105C78.2846 14.6634 78.3997 14.4034 78.4452 14.1307L78.5986 13.2102C78.5474 13.2614 78.4466 13.3082 78.296 13.3509C78.1454 13.3906 77.975 13.4261 77.7846 13.4574C77.5971 13.4858 77.4139 13.5114 77.2349 13.5341C77.0588 13.554 76.9167 13.571 76.8088 13.5852C76.5417 13.6193 76.2875 13.6747 76.046 13.7514C75.8074 13.8253 75.6057 13.9375 75.4409 14.0881C75.279 14.2358 75.1781 14.4375 75.1383 14.6932C75.0787 15.0426 75.1625 15.3068 75.3898 15.4858C75.617 15.6619 75.931 15.75 76.3315 15.75Z" fill="#4F46E5"/>
</svg>
